# xmcd CD database file
#
# Track frame offsets:
#	150
#	12425
#	24775
#	37875
#	51000
#	65712
#	79425
#	93262
#	106362
#	118625
#	132637
#	146250
#	159205
#	170910
#	182850
#	196260
#	210700
#	223212
#	236145
#	249937
#
# Disc length: 3506 seconds
#
# Revision: 0
# Processed by: cddbd v1.4PL0 Copyright (c) Steve Scherf et al.
# Submitted via: CDex 1.50
#
DISCID=1d0db014
DTITLE=Hank Snow - 20 Golden Greats
DYEAR=1900
DGENRE=Country
TTITLE0=Brand On My Heart
TTITLE1=Answer To Galveston Rose
TTITLE2=Down Where The Dark Waters Flow
TTITLE3=I'm Gonna Bid My Blues Goodbye
TTITLE4=My Sweet Texas Blue Bonnet Queen
TTITLE5=Just A Faded Petal From A Beautiful Bouquet
TTITLE6=When That Someone You Love Doesn't Love You
TTITLE7=Dream Tide
TTITLE8=The Rainbow's End
TTITLE9=When My Blue Moon Turns To Gold Again
TTITLE10=We'll Never Say Goodbye, Just Say So Long
TTITLE11=Goodnight Little Buckaroo
TTITLE12=I'm Sending You Red Roses
TTITLE13=Don't Hang Around Me Anymore
TTITLE14=Your Little Band Of Gold
TTITLE15=My Blue River Rose
TTITLE16=In Memory Of You Dear Old Pal
TTITLE17=Can't Have You Blues
TTITLE18=Prisoned Cowboy
TTITLE19=The Texas Cowboy
EXTD=
EXTT0=
EXTT1=
EXTT2=
EXTT3=
EXTT4=
EXTT5=
EXTT6=
EXTT7=
EXTT8=
EXTT9=
EXTT10=
EXTT11=
EXTT12=
EXTT13=
EXTT14=
EXTT15=
EXTT16=
EXTT17=
EXTT18=
EXTT19=
PLAYORDER=
